<svg width="564" height="459" viewBox="0 0 564 459" fill="none" xmlns="http://www.w3.org/2000/svg">
<path d="M183.149 173V180.247H158.117V142.787H166.555V173H183.149Z" fill="black"/>
<path d="M209.041 179.272C207.299 179.749 205.53 180.119 203.744 180.38C201.491 180.731 199.214 180.902 196.934 180.892C194.88 180.953 192.833 180.625 190.902 179.925C189.417 179.357 188.104 178.415 187.092 177.19C186.124 175.958 185.441 174.527 185.092 173C184.68 171.248 184.481 169.453 184.497 167.653V151.811H192.554V166.686C192.554 169.281 192.896 171.154 193.579 172.306C194.262 173.457 195.543 174.036 197.422 174.041C197.992 174.041 198.612 174.041 199.256 173.958C199.901 173.876 200.479 173.843 200.983 173.768V151.811H209.041V179.272Z" fill="black"/>
<path d="M228.99 165.166C228.99 162.571 228.651 160.728 227.99 159.654C227.619 159.094 227.104 158.645 226.499 158.354C225.894 158.063 225.221 157.941 224.553 158.001C224.048 158.001 223.528 158.001 222.991 158.084C222.454 158.166 221.925 158.199 221.421 158.274V180.247H213.363V152.786C214.046 152.605 214.848 152.414 215.768 152.216C216.685 152.018 217.661 151.836 218.685 151.679C219.71 151.522 220.768 151.39 221.85 151.299C222.933 151.208 223.991 151.167 225.04 151.167C226.742 151.105 228.439 151.372 230.04 151.952C231.189 152.396 232.258 153.024 233.205 153.811C235.597 152.169 238.412 151.251 241.312 151.167C243.221 151.103 245.123 151.423 246.906 152.109C248.286 152.675 249.49 153.599 250.394 154.786C251.29 156.013 251.899 157.425 252.179 158.918C252.517 160.663 252.681 162.438 252.666 164.215V180.247H244.609V165.166C244.609 162.571 244.278 160.728 243.609 159.654C243.24 159.094 242.726 158.645 242.122 158.354C241.519 158.063 240.847 157.941 240.18 158.001C239.562 158.031 238.95 158.142 238.362 158.331C237.684 158.508 237.038 158.787 236.444 159.158C236.702 160.011 236.866 160.889 236.932 161.777C237.006 162.695 237.039 163.678 237.039 164.728V180.247H228.99V165.166Z" fill="black"/>
<path d="M264.772 180.247H256.715V151.811H264.772V180.247Z" fill="black"/>
<path d="M269.094 152.786C270.835 152.309 272.604 151.939 274.391 151.679C276.644 151.328 278.921 151.156 281.2 151.167C283.252 151.108 285.297 151.427 287.233 152.109C288.715 152.653 290.029 153.576 291.043 154.786C292.006 155.999 292.689 157.41 293.042 158.918C293.456 160.653 293.656 162.432 293.637 164.215V180.247H285.58V165.166C285.58 162.571 285.241 160.728 284.555 159.654C283.87 158.579 282.589 158.001 280.713 158.001C280.143 158.001 279.523 158.001 278.878 158.083C278.234 158.166 277.655 158.199 277.151 158.273V180.247H269.094V152.786Z" fill="black"/>
<path d="M307.902 151.059C309.917 151.01 311.927 151.289 313.852 151.886C315.294 152.334 316.603 153.132 317.662 154.208C318.634 155.245 319.331 156.509 319.687 157.885C320.1 159.455 320.3 161.072 320.282 162.695V179.454C319.136 179.702 317.532 179.999 315.472 180.347C313.011 180.716 310.523 180.887 308.035 180.859C306.355 180.873 304.68 180.71 303.035 180.371C301.657 180.095 300.347 179.553 299.176 178.776C298.107 178.05 297.251 177.051 296.696 175.884C296.08 174.508 295.783 173.011 295.829 171.504C295.787 170.036 296.131 168.582 296.829 167.29C297.474 166.159 298.395 165.209 299.506 164.529C300.693 163.825 301.989 163.322 303.341 163.042C304.816 162.735 306.32 162.582 307.828 162.587C308.758 162.58 309.688 162.624 310.613 162.72C311.28 162.783 311.941 162.902 312.588 163.075V162.315C312.616 161.708 312.521 161.103 312.308 160.534C312.095 159.966 311.769 159.447 311.348 159.009C310.522 158.183 309.076 157.77 307.018 157.77C305.663 157.769 304.309 157.868 302.969 158.067C301.79 158.226 300.63 158.503 299.506 158.894L298.448 152.398C298.911 152.258 299.498 152.101 300.2 151.944C300.903 151.787 301.671 151.638 302.498 151.506C303.324 151.373 304.2 151.274 305.126 151.183C306.051 151.092 306.993 151.059 307.902 151.059ZM308.555 174.628C309.382 174.628 310.101 174.628 310.828 174.57C311.406 174.55 311.983 174.495 312.555 174.405V168.298C312.233 168.232 311.728 168.157 311.092 168.083C310.502 168.013 309.909 167.977 309.315 167.976C308.6 167.971 307.885 168.016 307.175 168.108C306.567 168.183 305.976 168.356 305.423 168.62C304.939 168.849 304.528 169.206 304.233 169.653C303.92 170.146 303.768 170.723 303.795 171.306C303.743 171.818 303.834 172.334 304.059 172.797C304.284 173.259 304.633 173.65 305.068 173.926C306.15 174.456 307.352 174.698 308.555 174.628Z" fill="black"/>
<path d="M341.7 181.057C339.118 181.099 336.55 180.659 334.13 179.76C331.978 178.942 330.043 177.638 328.477 175.95C326.873 174.174 325.657 172.083 324.907 169.81C324.039 167.123 323.62 164.311 323.668 161.488C323.617 158.649 324.102 155.826 325.097 153.167C325.976 150.877 327.308 148.788 329.014 147.026C330.67 145.357 332.662 144.059 334.857 143.217C337.151 142.339 339.59 141.899 342.047 141.919C343.459 141.907 344.87 142.026 346.261 142.275C347.376 142.473 348.48 142.732 349.567 143.052C350.368 143.286 351.146 143.595 351.889 143.977C352.5 144.299 352.938 144.531 353.186 144.68L351.186 150.241C350.022 149.576 348.778 149.059 347.484 148.704C345.792 148.205 344.034 147.96 342.27 147.977C340.719 147.963 339.179 148.243 337.733 148.803C336.344 149.345 335.096 150.192 334.08 151.282C332.996 152.509 332.177 153.947 331.675 155.505C331.065 157.406 330.772 159.393 330.808 161.389C330.792 163.232 331.02 165.068 331.485 166.852C331.886 168.409 332.594 169.87 333.568 171.149C334.509 172.364 335.735 173.329 337.138 173.958C338.774 174.667 340.545 175.008 342.328 174.958C344.317 175.015 346.304 174.77 348.22 174.231C349.426 173.867 350.601 173.406 351.732 172.851L353.566 178.421C353.013 178.757 352.426 179.034 351.814 179.247C350.954 179.568 350.076 179.844 349.187 180.074C348.068 180.368 346.93 180.583 345.782 180.718C344.43 180.921 343.066 181.034 341.7 181.057Z" fill="black"/>
<path d="M380.823 166.083C380.849 168.159 380.522 170.224 379.857 172.19C379.265 173.929 378.326 175.528 377.096 176.892C375.896 178.197 374.431 179.231 372.799 179.925C371.046 180.658 369.162 181.023 367.262 180.999C365.368 181.026 363.488 180.66 361.742 179.925C360.124 179.224 358.671 178.191 357.478 176.892C356.243 175.528 355.296 173.928 354.693 172.19C354.004 170.229 353.666 168.162 353.693 166.083C353.664 164.012 354.003 161.953 354.693 160.001C355.304 158.268 356.26 156.677 357.503 155.323C358.705 154.029 360.17 153.006 361.8 152.324C363.531 151.609 365.389 151.252 367.262 151.274C369.143 151.253 371.009 151.61 372.75 152.324C374.383 152.999 375.85 154.023 377.047 155.323C378.27 156.685 379.214 158.275 379.824 160.001C380.514 161.953 380.852 164.012 380.823 166.083ZM374.121 166.083C374.248 163.721 373.614 161.381 372.312 159.406C371.71 158.641 370.943 158.023 370.067 157.597C369.192 157.172 368.231 156.951 367.258 156.951C366.285 156.951 365.325 157.172 364.449 157.597C363.574 158.023 362.807 158.641 362.205 159.406C360.903 161.381 360.269 163.721 360.395 166.083C360.395 168.934 360.998 171.182 362.205 172.843C362.801 173.616 363.566 174.243 364.442 174.673C365.319 175.104 366.282 175.329 367.258 175.329C368.235 175.329 369.198 175.104 370.074 174.673C370.95 174.243 371.716 173.616 372.312 172.843C373.518 171.182 374.121 168.926 374.121 166.083Z" fill="black"/>
<path d="M400.45 157.869C399.712 157.637 398.962 157.446 398.202 157.299C397.113 157.088 396.006 156.988 394.897 157.001C394.126 157.007 393.358 157.079 392.599 157.216C392.025 157.309 391.456 157.436 390.897 157.596V180.247H384.344V153.324C385.888 152.777 387.467 152.335 389.071 152.001C391.142 151.57 393.253 151.362 395.368 151.382C395.797 151.382 396.302 151.382 396.88 151.464C397.459 151.547 398.037 151.588 398.607 151.679C399.177 151.77 399.748 151.877 400.26 152.001C400.699 152.095 401.132 152.213 401.557 152.357L400.45 157.869Z" fill="black"/>
<path d="M401.308 166.248C401.264 164.016 401.642 161.795 402.424 159.703C403.08 157.962 404.08 156.371 405.366 155.026C406.56 153.807 407.996 152.85 409.58 152.216C411.128 151.595 412.78 151.276 414.448 151.274C418.343 151.274 421.373 152.481 423.538 154.894C425.703 157.307 426.805 160.91 426.844 165.703C426.844 166.067 426.844 166.471 426.844 166.918C426.844 167.372 426.794 167.744 426.761 168.141H408.068C408.097 169.134 408.324 170.112 408.737 171.016C409.15 171.92 409.741 172.733 410.473 173.405C411.894 174.65 413.958 175.272 416.663 175.272C418.125 175.286 419.586 175.142 421.018 174.843C422.078 174.629 423.118 174.322 424.125 173.925L424.951 179.272C424.47 179.5 423.973 179.69 423.464 179.842C422.752 180.061 422.03 180.241 421.299 180.38C420.472 180.545 419.646 180.677 418.679 180.785C417.727 180.894 416.77 180.949 415.811 180.95C413.598 180.996 411.397 180.62 409.324 179.842C407.597 179.173 406.045 178.119 404.787 176.76C403.581 175.416 402.676 173.83 402.135 172.107C401.553 170.21 401.274 168.233 401.308 166.248ZM420.315 163.323C420.32 162.455 420.194 161.592 419.943 160.761C419.709 159.996 419.334 159.281 418.836 158.654C418.352 158.06 417.742 157.58 417.051 157.249C416.275 156.89 415.427 156.712 414.572 156.728C413.658 156.707 412.751 156.902 411.927 157.299C411.194 157.659 410.541 158.165 410.01 158.786C409.479 159.408 409.067 160.122 408.795 160.893C408.508 161.679 408.308 162.494 408.2 163.323H420.315Z" fill="black"/>
<path d="M465.099 180.247C464.595 178.768 464.066 177.305 463.529 175.867C462.992 174.43 462.463 172.95 461.959 171.438H446.134C445.63 172.95 445.109 174.438 444.588 175.892C444.068 177.347 443.547 178.801 443.043 180.247H435.961C437.366 176.248 438.699 172.554 439.961 169.165C441.222 165.777 442.454 162.571 443.655 159.546C444.861 156.516 446.059 153.632 447.249 150.894C448.439 148.156 449.662 145.454 450.919 142.787H457.397C458.659 145.459 459.885 148.161 461.075 150.894C462.265 153.627 463.463 156.511 464.67 159.546C465.876 162.571 467.119 165.777 468.397 169.165C469.675 172.554 471.019 176.248 472.429 180.247H465.099ZM454.042 150.026C453.216 151.935 452.266 154.266 451.208 157.001C450.15 159.736 449.034 162.711 447.902 165.918H460.207C459.05 162.711 457.932 159.723 456.852 156.951C455.745 154.175 454.836 151.869 454.042 150.026Z" fill="black"/>
<path d="M480.178 180.247H473.633V142.787H480.178V180.247Z" fill="black"/>
<path d="M264.772 149.77L256.715 141.919H264.772V149.77Z" fill="url(#paint0_linear_13_3941)"/>
<path d="M81.5859 191.949L86.6352 197.312L103.031 202.072L110.799 202.675H113.617V191.932H111.311C106.064 191.817 93.3702 190.833 89.4284 184.239C84.4039 175.843 82.9495 189.767 82.9495 189.767L84.7097 191.932L81.5859 191.949Z" fill="url(#paint1_linear_13_3941)"/>
<path d="M66.34 172.917C66.3351 172.189 66.4802 171.467 66.7662 170.797C67.0521 170.126 67.4729 169.522 68.0022 169.022C68.5316 168.521 69.1582 168.134 69.8432 167.886C70.5282 167.638 71.257 167.533 71.9842 167.579C74.1323 167.733 76.2205 168.356 78.1011 169.406C79.9817 170.455 81.6089 171.905 82.8677 173.653C89.5945 182.495 96.1313 202.675 113.626 202.675H66.34V172.917Z" fill="url(#paint2_linear_13_3941)"/>
<path d="M63.5551 149.092L58.1836 154.133L53.4236 170.537L52.8203 178.305V181.123H63.5634V178.817C63.6791 173.57 64.6542 160.885 71.2488 156.935C79.6449 151.91 65.7202 150.464 65.7202 150.464L63.5634 152.224L63.5551 149.092Z" fill="url(#paint3_linear_13_3941)"/>
<path d="M82.5786 133.821C83.3068 133.815 84.0284 133.959 84.6985 134.244C85.3687 134.529 85.9729 134.949 86.4737 135.478C86.9745 136.006 87.3611 136.632 87.6094 137.317C87.8577 138.002 87.9624 138.73 87.917 139.457C87.7659 141.607 87.1434 143.697 86.0937 145.579C85.044 147.462 83.5928 149.09 81.8431 150.349C73.0007 157.075 52.8203 163.612 52.8203 181.098V133.821H82.5786Z" fill="url(#paint4_linear_13_3941)"/>
<path d="M106.438 131.028L101.388 125.664L84.9927 120.904L77.2247 120.301H74.3984V131.044H76.7041C81.9516 131.16 94.645 132.143 98.5868 138.738C103.611 147.134 105.066 133.209 105.066 133.209L103.306 131.044L106.438 131.028Z" fill="url(#paint5_linear_13_3941)"/>
<path d="M121.684 150.059C121.689 150.788 121.544 151.51 121.258 152.18C120.972 152.85 120.552 153.454 120.022 153.955C119.493 154.456 118.866 154.842 118.181 155.09C117.496 155.338 116.767 155.443 116.04 155.398C113.892 155.244 111.804 154.62 109.923 153.57C108.043 152.521 106.415 151.071 105.157 149.324C98.4298 140.481 91.9344 120.301 74.3984 120.301H121.684V150.059Z" fill="url(#paint6_linear_13_3941)"/>
<path d="M124.472 173.884L129.843 168.843L134.603 152.439L135.206 144.671V141.853H124.463V144.159C124.348 149.406 123.372 162.092 116.77 166.042C108.382 171.066 122.306 172.521 122.306 172.521L124.463 170.752L124.472 173.884Z" fill="url(#paint7_linear_13_3941)"/>
<path d="M105.446 189.163C104.718 189.168 103.996 189.023 103.326 188.737C102.656 188.451 102.052 188.03 101.551 187.501C101.05 186.972 100.664 186.345 100.416 185.66C100.167 184.975 100.063 184.246 100.108 183.519C100.259 181.369 100.882 179.279 101.931 177.396C102.981 175.514 104.432 173.886 106.182 172.627C115.024 165.9 135.205 159.364 135.205 141.877V189.163H105.446Z" fill="url(#paint8_linear_13_3941)"/>
<defs>
<linearGradient id="paint0_linear_13_3941" x1="261.789" y1="135.151" x2="259.334" y2="160.265" gradientUnits="userSpaceOnUse">
<stop stop-color="#FF00A9"/>
<stop offset="0.55" stop-color="#FF2A00"/>
<stop offset="1" stop-color="#FFF200"/>
</linearGradient>
<linearGradient id="paint1_linear_13_3941" x1="127.087" y1="165.802" x2="79.0572" y2="212.088" gradientUnits="userSpaceOnUse">
<stop offset="0.23" stop-color="#FF2E00"/>
<stop offset="0.75" stop-color="#C00000"/>
</linearGradient>
<linearGradient id="paint2_linear_13_3941" x1="93.3959" y1="183.115" x2="73.2568" y2="204.419" gradientUnits="userSpaceOnUse">
<stop offset="0.23" stop-color="#FF4100"/>
<stop offset="0.75" stop-color="#F30000"/>
</linearGradient>
<linearGradient id="paint3_linear_13_3941" x1="85.4048" y1="191.519" x2="62.2742" y2="166.05" gradientUnits="userSpaceOnUse">
<stop stop-color="#FFEA00"/>
<stop offset="0.54" stop-color="#F05A28"/>
<stop offset="0.75" stop-color="#FA3400"/>
</linearGradient>
<linearGradient id="paint4_linear_13_3941" x1="41.945" y1="142.547" x2="102.197" y2="176.504" gradientUnits="userSpaceOnUse">
<stop stop-color="#FFEA00"/>
<stop offset="0.54" stop-color="#F05A28"/>
<stop offset="0.75" stop-color="#FA3400"/>
</linearGradient>
<linearGradient id="paint5_linear_13_3941" x1="77.2412" y1="142.242" x2="94.645" y2="124.259" gradientUnits="userSpaceOnUse">
<stop stop-color="#FFEA00"/>
<stop offset="0.54" stop-color="#F05A28"/>
<stop offset="0.75" stop-color="#FA3400"/>
</linearGradient>
<linearGradient id="paint6_linear_13_3941" x1="105.884" y1="112.773" x2="88.2404" y2="164.207" gradientUnits="userSpaceOnUse">
<stop stop-color="#FFEA00"/>
<stop offset="0.54" stop-color="#F05A28"/>
<stop offset="0.75" stop-color="#FA3400"/>
</linearGradient>
<linearGradient id="paint7_linear_13_3941" x1="101.432" y1="133.193" x2="136.388" y2="167.149" gradientUnits="userSpaceOnUse">
<stop offset="0.23" stop-color="#FF2E00"/>
<stop offset="0.75" stop-color="#C00000"/>
</linearGradient>
<linearGradient id="paint8_linear_13_3941" x1="116.066" y1="161.975" x2="145.361" y2="196.435" gradientUnits="userSpaceOnUse">
<stop offset="0.23" stop-color="#FF4100"/>
<stop offset="0.75" stop-color="#F30000"/>
</linearGradient>
</defs>
</svg>
