<svg width="40" height="40" viewBox="0 0 40 40" fill="none" xmlns="http://www.w3.org/2000/svg">
<path d="M34.4016 10.2333C34.0682 9.87495 30.6716 9.72828 30.0016 9.16662C29.0516 8.37078 29.4832 5.88412 28.4766 5.19995C31.1849 5.79995 33.3932 7.70828 34.4016 10.2333Z" fill="#7238CE"/>
<path d="M34.4012 13.0333L35.0012 14.1667V15.2167C33.9512 13.7917 26.2854 7.00167 23.0938 5.49333L24.7513 5H26.6679C27.2929 5 27.8929 5.06667 28.4762 5.2C30.1929 6.36667 31.8346 7.69167 33.3762 9.19167C33.7262 9.53333 34.0679 9.875 34.4012 10.2333C34.5887 10.6917 34.7337 11.1717 34.8346 11.6667C34.8346 11.6667 34.4012 12.4642 34.4012 13.0333Z" fill="#8638C6"/>
<path d="M34.9994 15.2167V20.3C33.6253 17.7717 20.0786 6.55167 14.0011 5.09083C13.8486 5.05417 13.7636 5.11583 13.6211 5.09167L13.9161 5H21.8494L22.7136 5.42417C23.7953 5.935 24.7478 6.08417 25.7786 6.72C27.7894 7.96083 29.6953 9.43917 31.4578 11.1583C32.7661 12.4333 33.9494 13.7917 34.9994 15.2167Z" fill="#A035BF"/>
<path d="M35.0008 20.3C35.0008 20.3 34.9841 27.5417 34.9591 27.5C33.7174 22.925 7.75078 7.325 7.55078 7.34167C8.55411 6.37167 9.79661 5.65084 11.1833 5.28084C11.1833 5.28084 12.5899 5.83334 13.3341 5.83334C13.3341 5.83334 13.8249 5.04584 13.9583 5.07C19.6474 6.1075 25.0966 8.78417 29.5508 13.1167C31.7758 15.2833 33.5924 17.7083 35.0008 20.3Z" fill="#BE37B5"/>
<path d="M34.9599 27.5C34.7932 29.2167 34.1016 30.775 33.0432 32.025C32.4432 26.5334 6.4599 10.125 5.60156 10.225C6.04323 9.12503 6.7099 8.14169 7.55156 7.34169C7.75156 7.32503 7.95156 7.31669 8.15156 7.31669C15.1599 7.22503 22.2099 9.80003 27.6349 15.0834C31.2766 18.625 33.7182 22.925 34.9599 27.5Z" fill="#DF35A5"/>
<path d="M33.0406 32.025V32.0333C32.3156 32.8917 31.4323 33.5917 30.424 34.1C30.2823 28.6 7.23398 12.8242 6.16815 12.9992C6.17982 12.5158 5.07315 12.1267 5.16565 11.6667C5.26648 11.1675 5.41232 10.685 5.59898 10.225C6.45732 10.125 7.31565 10.0667 8.18232 10.0583C14.499 9.97499 20.8406 12.2917 25.724 17.05C29.999 21.2083 32.4406 26.5333 33.0406 32.025Z" fill="#FB3593"/>
<path d="M27.7 34.9333C27.7 34.9333 6.075 15.6666 5 15.8666V14.1666L5.73 13.0674C6.79667 12.8924 7.15 12.8166 8.225 12.7999C13.8333 12.7249 19.475 14.7916 23.8083 19.0083C28.0667 23.1499 30.2833 28.5999 30.425 34.0999C29.5917 34.5249 28.675 34.8166 27.7 34.9333Z" fill="#FF3A71"/>
<path d="M27.7 34.4667V34.9334C27.3667 34.975 27.0167 35 26.6667 35H24.95C24.9583 34.8334 6.08333 18.425 5 18.6584V15.8667C6.075 15.6667 7.16667 15.5584 8.25833 15.5417C13.1667 15.475 18.1 17.2834 21.9 20.975C25.7 24.675 27.6333 29.5584 27.7 34.4667Z" fill="#FF3F43"/>
<path d="M24.9583 34.5C24.9583 34.6667 24.9583 34.8333 24.95 35H22.2083C22.2167 34.8417 21.1392 34.4617 21.1392 34.3117C21.0975 30.8033 9.5 20.2833 5 21.475V18.6583C6.08333 18.425 7.19167 18.3 8.29167 18.2833C12.5 18.225 16.7333 19.775 19.9917 22.9417C23.2417 26.1083 24.9083 30.2917 24.9583 34.5Z" fill="#FE4C2B"/>
<path d="M22.2167 34.5417C22.2167 34.6917 22.2167 34.8417 22.2083 35H19.475C19.4833 34.8583 18.5117 34.1817 18.5117 34.04C18.47 31.24 8.775 23.0667 5 24.3333V21.475C9.5 20.2833 14.4917 21.4167 18.075 24.9C20.7917 27.5417 22.175 31.0333 22.2167 34.5417Z" fill="#FF5A17"/>
<path d="M19.4833 34.575C19.4833 34.7167 19.4833 34.8583 19.475 35H16.7333C16.8083 32.7667 8.03333 25.8667 5.025 27.2833C5.01667 27.2833 5 24.3333 5 24.3333C8.775 23.0667 13.1167 23.8917 16.1667 26.8667C18.3333 28.9833 19.4417 31.775 19.4833 34.575Z" fill="#FF6804"/>
<path d="M13.9818 35C14.0651 33.4834 7.78177 28.775 5.70677 30.025C5.33177 29.175 5.0901 28.2584 5.02344 27.2834C8.03177 25.8667 11.7318 26.375 14.2484 28.8334C15.9818 30.5167 16.8068 32.7667 16.7318 35H13.9818Z" fill="#FF7501"/>
<path d="M13.982 35.0001H13.332C12.6154 35.0001 11.9237 34.9084 11.257 34.7334C11.257 34.0167 8.24036 31.7584 7.21536 32.3167C6.59036 31.6501 6.08203 30.8751 5.70703 30.0251C7.78203 28.7751 10.5237 29.0251 12.3404 30.8001C13.5154 31.9417 14.0654 33.4834 13.982 35.0001Z" fill="#FF8C01"/>
<path d="M11.2565 34.7333C9.68151 34.3333 8.28151 33.4833 7.21484 32.3167C8.23984 31.7583 9.54818 31.9083 10.4232 32.7583C10.9815 33.3 11.2565 34.0167 11.2565 34.7333Z" fill="#FF9B04"/>
<path d="M35 13.3333V14.1667H5V13.3333C5 12.7583 5.05833 12.2 5.16667 11.6667H14.9083L11.1833 5.28333C11.8667 5.1 12.5917 5 13.3333 5H13.9167L17.8 11.6667H25.7417L21.85 5H24.75L28.6333 11.6667H34.8333C34.9417 12.2 35 12.7583 35 13.3333Z" fill="white"/>
<path d="M15 27.595V19.905C15 18.6225 16.3883 17.82 17.4992 18.4616L24.1642 22.3066C25.2758 22.9483 25.2758 24.5525 24.1642 25.1941L17.4992 29.0391C16.3883 29.68 15 28.8775 15 27.595Z" fill="white"/>
</svg>
