<svg width="40" height="40" viewBox="0 0 40 40" fill="none" xmlns="http://www.w3.org/2000/svg">
<g clip-path="url(#clip0_13_3924)">
<path d="M34 0L6 0C2.68629 0 0 2.68629 0 6L0 34C0 37.3137 2.68629 40 6 40H34C37.3137 40 40 37.3137 40 34V6C40 2.68629 37.3137 0 34 0Z" fill="#FFFC00"/>
<path d="M15.8594 32.3437C14.4531 31.3281 13.3594 30.7812 10.7031 31.25C10.3125 31.3281 9.60938 31.5625 9.53125 30.8594C9.375 30.3125 9.375 29.4531 8.98438 29.375C6.5625 29.0625 5.70312 28.5937 5.3125 28.125C5.15625 27.9687 5.07812 27.5781 5.39062 27.5C9.53125 26.7187 11.4844 22.7344 11.875 21.9531C12.3438 20.7812 11.5625 20.0781 10.0781 19.6094C9.375 19.375 8.20312 19.0625 8.20312 18.2812C8.20312 17.8906 8.59375 17.6562 8.98438 17.5C9.29688 17.4219 9.60938 17.3437 9.92188 17.5C10.8594 17.8906 11.7188 18.0469 12.1875 17.6562C12.1875 15.5469 11.6406 12.8906 12.5 10.7031C13.5156 8.28125 16.0156 6.09375 20 6.09375C23.9844 6.09375 26.4844 8.28125 27.5 10.7031C28.3594 12.8906 27.8125 15.5469 27.8125 17.6562C28.2812 18.0469 29.1406 17.8906 30.0781 17.5C30.3906 17.3437 30.7031 17.4219 31.0156 17.5C31.4062 17.6562 31.7969 17.8906 31.7969 18.2812C31.7969 19.0625 30.625 19.375 29.9219 19.6094C28.4375 20.0781 27.6562 20.7812 28.125 21.9531C28.5156 22.7344 30.4688 26.7187 34.6094 27.5C34.9219 27.5781 34.8438 27.9687 34.6875 28.125C34.2969 28.5937 33.4375 29.0625 31.0156 29.375C30.625 29.4531 30.625 30.3125 30.4688 30.8594C30.3906 31.5625 29.6875 31.3281 29.2969 31.25C26.6406 30.7812 25.5469 31.3281 24.1406 32.3437C22.9899 33.3399 21.522 33.8938 20 33.9062C18.3594 33.9844 17.0312 33.2812 15.8594 32.3437Z" fill="white" stroke="black" stroke-width="1.3"/>
</g>
<defs>
<clipPath id="clip0_13_3924">
<rect width="40" height="40" fill="white"/>
</clipPath>
</defs>
</svg>
