<svg width="40" height="40" viewBox="0 0 40 40" fill="none" xmlns="http://www.w3.org/2000/svg">
<path fill-rule="evenodd" clip-rule="evenodd" d="M9.08667 5L30.9125 5C33.17 5 35 6.83 35 9.08667V30.9125C35 33.17 33.17 35 30.9133 35H9.08667C6.83 35 5 33.17 5 30.9133L5 9.08667C5 6.83 6.83 5 9.08667 5Z" fill="black"/>
<path fill-rule="evenodd" clip-rule="evenodd" d="M24.3383 17.1725C25.6516 18.1108 27.2608 18.6625 28.9983 18.6625V15.32C28.6691 15.32 28.3416 15.2858 28.0199 15.2175V17.8483C26.2824 17.8483 24.6741 17.2958 23.3599 16.3583V23.1783C23.3599 26.59 20.5924 29.3558 17.1791 29.3558C15.9058 29.3558 14.7216 28.9708 13.7383 28.3108C14.8608 29.4575 16.4258 30.1691 18.1574 30.1691C21.5708 30.1691 24.3383 27.4033 24.3383 23.9916V17.1725ZM25.5458 13.8008C24.8749 13.0683 24.4341 12.1208 24.3383 11.0733V10.6433H23.4108C23.6441 11.9741 24.4408 13.1116 25.5458 13.8008ZM15.8974 25.6933C15.5224 25.2016 15.3199 24.6008 15.3208 23.9825C15.3208 22.4216 16.5866 21.1566 18.1483 21.1566C18.4391 21.1566 18.7283 21.2008 19.0058 21.2891V17.8725C18.6816 17.8283 18.3549 17.8091 18.0274 17.8158V20.475C17.7499 20.3866 17.4608 20.3425 17.1691 20.3425C15.6074 20.3425 14.3416 21.6075 14.3416 23.1683C14.3424 24.2725 14.9749 25.2283 15.8974 25.6933Z" fill="#EC407A"/>
<path fill-rule="evenodd" clip-rule="evenodd" d="M23.3621 16.3583C24.6755 17.2966 26.2846 17.8483 28.0221 17.8483V15.2175C27.0521 15.0108 26.1938 14.5041 25.548 13.8C24.443 13.1108 23.6471 11.9741 23.4138 10.6433H20.978V23.9916C20.9721 25.5475 19.7088 26.8075 18.1505 26.8075C17.2321 26.8075 16.4163 26.37 15.8996 25.6925C14.9771 25.2275 14.3446 24.2716 14.3446 23.1683C14.3446 21.6075 15.6105 20.3425 17.1721 20.3425C17.4713 20.3425 17.7596 20.3891 18.0305 20.475V17.8166C14.6771 17.8858 11.9805 20.6241 11.9805 23.9925C11.9805 25.6741 12.6521 27.1983 13.7421 28.3116C14.7255 28.9716 15.9096 29.3566 17.183 29.3566C20.5963 29.3566 23.3638 26.5908 23.3638 23.1791L23.3621 16.3583Z" fill="white"/>
<path fill-rule="evenodd" clip-rule="evenodd" d="M28.0217 15.2184V14.5067C27.1467 14.5084 26.29 14.2634 25.5475 13.8001C26.2042 14.5192 27.0692 15.0151 28.0217 15.2184ZM23.4125 10.6434C23.39 10.5159 23.3733 10.3884 23.3617 10.2592V9.82922H19.9983V23.1784C19.9933 24.7342 18.7292 25.9942 17.1708 25.9942C16.7133 25.9942 16.2817 25.8859 15.8992 25.6926C16.4158 26.3701 17.2317 26.8076 18.15 26.8076C19.7083 26.8076 20.9717 25.5476 20.9775 23.9917V10.6434H23.4125ZM18.0292 17.8167V17.0592C17.7483 17.0209 17.465 17.0017 17.1808 17.0017C13.7667 17.0017 11 19.7676 11 23.1792C11 25.3184 12.0875 27.2034 13.74 28.3117C12.65 27.1984 11.9783 25.6742 11.9783 23.9926C11.9783 20.6242 14.6758 17.8859 18.0292 17.8167Z" fill="#81D4FA"/>
</svg>
