<svg width="40" height="40" viewBox="0 0 40 40" fill="none" xmlns="http://www.w3.org/2000/svg">
<path d="M24.2516 2.19256C27.7658 0.36089 32.1166 1.69506 33.9666 5.17339C35.8166 8.65089 34.4666 12.9542 30.9524 14.7851L28.0624 16.3042C30.5516 16.3951 32.9258 17.7626 34.1691 20.1001C36.0191 23.5776 34.6724 27.8809 31.1549 29.7117L15.7466 37.8084C12.2324 39.6401 7.88161 38.3059 6.03161 34.8276C4.18161 31.3492 5.53161 27.0467 9.04577 25.2159L11.9358 23.6967C9.44661 23.6059 7.07244 22.2384 5.82911 19.9009C3.97911 16.4234 5.32911 12.1201 8.84327 10.2892L24.2516 2.19256ZM15.9341 14.2667L25.2608 20.0251L15.9341 25.7559V14.2667Z" fill="#FF3D00"/>
<path d="M15.9336 14.2667V25.7559L25.2603 20.0251L15.9336 14.2667Z" fill="white"/>
</svg>
